<svg width="28" height="28" viewBox="0 0 28 28" fill="none" xmlns="http://www.w3.org/2000/svg">
<path fill-rule="evenodd" clip-rule="evenodd" d="M3.64285 8.04547C2.76182 8.04547 2.04761 8.75968 2.04761 9.64071V14V16.7273V18.3593C2.04761 19.2403 2.76182 19.9546 3.64285 19.9546H22.1667C23.0477 19.9546 23.7619 19.2403 23.7619 18.3593V17.0029C23.7619 16.8758 23.8649 16.7727 23.9921 16.7727C25.0747 16.7727 25.9524 15.8951 25.9524 14.8124V13.1876C25.9524 12.105 25.0747 11.2273 23.9921 11.2273C23.8649 11.2273 23.7619 11.1242 23.7619 10.9971V9.64071C23.7619 8.75968 23.0477 8.04547 22.1667 8.04547H19.9762H16.6905H3.64285ZM3.04761 9.64071C3.04761 9.31197 3.3141 9.04547 3.64285 9.04547H16.6905H19.9762H22.1667C22.4954 9.04547 22.7619 9.31197 22.7619 9.64071V10.9971C22.7619 11.6765 23.3127 12.2273 23.9921 12.2273C24.5224 12.2273 24.9524 12.6572 24.9524 13.1876V14.8124C24.9524 15.3428 24.5224 15.7727 23.9921 15.7727C23.3127 15.7727 22.7619 16.3235 22.7619 17.0029V18.3593C22.7619 18.6881 22.4954 18.9546 22.1667 18.9546H3.64285C3.3141 18.9546 3.04761 18.6881 3.04761 18.3593V16.7273V14V9.64071ZM4.73804 10.1818C4.4356 10.1818 4.19042 10.427 4.19042 10.7295V17.2706C4.19042 17.573 4.4356 17.8182 4.73804 17.8182H8.02375C8.32619 17.8182 8.57137 17.573 8.57137 17.2706V10.7295C8.57137 10.427 8.32619 10.1818 8.02375 10.1818H4.73804Z" fill="white"/>
</svg>
