<svg width="28" height="28" viewBox="0 0 28 28" fill="none" xmlns="http://www.w3.org/2000/svg">
<path fill-rule="evenodd" clip-rule="evenodd" d="M14.3214 8C13.8677 8 13.5 8.36777 13.5 8.82143V10.7381H11.3095V8.82143C11.3095 8.36777 10.9417 8 10.4881 8C10.0344 8 9.66664 8.36777 9.66664 8.82143V10.7381H8.5714V14.0238C8.5714 15.2336 9.55211 16.2143 10.7619 16.2143H11.3095V20.5952H13.5V16.2143H14.0476C15.2574 16.2143 16.2381 15.2336 16.2381 14.0238V10.7381H15.1428V8.82143C15.1428 8.36777 14.7751 8 14.3214 8ZM8.2672 16.5266C8.34666 16.5903 8.41964 16.6506 8.48835 16.7075C8.94806 17.0877 9.21621 17.3095 9.95063 17.3095V18.4048H4.73808C4.43564 18.4048 4.19046 18.1596 4.19046 17.8572V11.2857C4.19046 10.9833 4.43564 10.7381 4.73808 10.7381H6.92858V13.7398C6.92858 14.8671 7.45112 15.8724 8.2672 16.5266ZM3.64285 19.5476H9.95063V20.5476H3.64285C2.76182 20.5476 2.04761 19.8334 2.04761 18.9524V17.3095V14.5714V10.1905C2.04761 9.30946 2.76182 8.59525 3.64285 8.59525H8.2672V9.59525H3.64285C3.3141 9.59525 3.04761 9.86175 3.04761 10.1905V14.5714V17.3095V18.9524C3.04761 19.2811 3.3141 19.5476 3.64285 19.5476ZM14.8589 19.5476V20.5476H22.1667C23.0477 20.5476 23.7619 19.8334 23.7619 18.9524V17.5833C23.7619 17.4562 23.8649 17.3532 23.9921 17.3532C25.0747 17.3532 25.9524 16.4755 25.9524 15.3929V13.75C25.9524 12.6674 25.0747 11.7897 23.9921 11.7897C23.8649 11.7897 23.7619 11.6867 23.7619 11.5595V10.1905C23.7619 9.30946 23.0477 8.59525 22.1667 8.59525H19.9762H16.6905H16.5423V9.59525H16.6905H19.9762H22.1667C22.4954 9.59525 22.7619 9.86175 22.7619 10.1905V11.5595C22.7619 12.2389 23.3127 12.7897 23.9921 12.7897C24.5224 12.7897 24.9524 13.2196 24.9524 13.75V15.3929C24.9524 15.9232 24.5224 16.3532 23.9921 16.3532C23.3127 16.3532 22.7619 16.9039 22.7619 17.5833V18.9524C22.7619 19.2811 22.4954 19.5476 22.1667 19.5476H14.8589ZM21.0714 10.7381H17.881V13.7398C17.881 14.8671 17.3584 15.8724 16.5423 16.5266C16.4629 16.5903 16.3899 16.6506 16.3212 16.7074L16.3212 16.7075C15.8615 17.0877 15.5933 17.3095 14.8589 17.3095V18.4048H21.0714C21.3739 18.4048 21.619 18.1596 21.619 17.8572V11.2857C21.619 10.9833 21.3739 10.7381 21.0714 10.7381Z" fill="white"/>
</svg>
