<svg width="28" height="28" viewBox="0 0 28 28" fill="none" xmlns="http://www.w3.org/2000/svg">
<path fill-rule="evenodd" clip-rule="evenodd" d="M3.64285 8.04761C2.76182 8.04761 2.04761 8.76182 2.04761 9.64284V14.0238V16.7619V18.4047C2.04761 19.2858 2.76182 20 3.64285 20H22.1667C23.0477 20 23.7619 19.2858 23.7619 18.4047V17.0357C23.7619 16.9086 23.8649 16.8055 23.9921 16.8055C25.0747 16.8055 25.9524 15.9279 25.9524 14.8452V13.2024C25.9524 12.1197 25.0747 11.2421 23.9921 11.2421C23.8649 11.2421 23.7619 11.139 23.7619 11.0119V9.64285C23.7619 8.76182 23.0477 8.04761 22.1667 8.04761H19.9762H16.6905H3.64285ZM3.04761 9.64284C3.04761 9.3141 3.3141 9.04761 3.64285 9.04761H16.6905H19.9762H22.1667C22.4954 9.04761 22.7619 9.3141 22.7619 9.64285V11.0119C22.7619 11.6913 23.3127 12.2421 23.9921 12.2421C24.5224 12.2421 24.9524 12.672 24.9524 13.2024V14.8452C24.9524 15.3756 24.5224 15.8055 23.9921 15.8055C23.3127 15.8055 22.7619 16.3563 22.7619 17.0357V18.4047C22.7619 18.7335 22.4954 19 22.1667 19H3.64285C3.3141 19 3.04761 18.7335 3.04761 18.4047V16.7619V14.0238V9.64284ZM4.73816 10.1904C4.43572 10.1904 4.19054 10.4356 4.19054 10.7381V17.3095C4.19054 17.6119 4.43572 17.8571 4.73816 17.8571H13.9524C14.2549 17.8571 14.5001 17.6119 14.5001 17.3095V10.7381C14.5001 10.4356 14.2549 10.1904 13.9524 10.1904H4.73816Z" fill="white"/>
</svg>
