<svg width="28" height="28" viewBox="0 0 28 28" fill="none" xmlns="http://www.w3.org/2000/svg">
<path fill-rule="evenodd" clip-rule="evenodd" d="M4.64285 8.04761C3.76182 8.04761 3.04761 8.76182 3.04761 9.64284V14.0238V16.7619V18.4047C3.04761 19.2858 3.76182 20 4.64284 20H22.1667C23.0477 20 23.7619 19.2858 23.7619 18.4047V17.0357C23.7619 16.9086 23.8649 16.8055 23.9921 16.8055C25.0747 16.8055 25.9524 15.9279 25.9524 14.8452V13.2024C25.9524 12.1197 25.0747 11.2421 23.9921 11.2421C23.8649 11.2421 23.7619 11.139 23.7619 11.0119V9.64285C23.7619 8.76182 23.0477 8.04761 22.1667 8.04761H19.9762H16.6905H4.64285ZM4.04761 9.64284C4.04761 9.3141 4.3141 9.04761 4.64285 9.04761H16.6905H19.9762H22.1667C22.4954 9.04761 22.7619 9.3141 22.7619 9.64285V11.0119C22.7619 11.6913 23.3127 12.2421 23.9921 12.2421C24.5224 12.2421 24.9524 12.672 24.9524 13.2024V14.8452C24.9524 15.3756 24.5224 15.8055 23.9921 15.8055C23.3127 15.8055 22.7619 16.3563 22.7619 17.0357V18.4047C22.7619 18.7335 22.4954 19 22.1667 19H4.64284C4.3141 19 4.04761 18.7335 4.04761 18.4047V16.7619V14.0238V9.64284ZM5.73808 10.1905C5.43564 10.1905 5.19046 10.4356 5.19046 10.7381V17.3095C5.19046 17.612 5.43564 17.8571 5.73808 17.8571H21.0714C21.3739 17.8571 21.619 17.612 21.619 17.3095V10.7381C21.619 10.4356 21.3739 10.1905 21.0714 10.1905H5.73808Z" fill="white"/>
</svg>
