<svg width="28" height="28" viewBox="0 0 28 28" fill="none" xmlns="http://www.w3.org/2000/svg">
<path fill-rule="evenodd" clip-rule="evenodd" d="M15.6248 13.9004L12.9524 12.9286L15.0434 8L9.77497 13.4414C9.5545 13.6691 9.64132 14.0484 9.9389 14.1575L12.2933 15.0208L10.9492 19.9493L15.7995 14.6065C16.0088 14.376 15.9175 14.0068 15.6248 13.9004ZM15.141 11.9763L15.7903 10.1905H21.0714C21.3739 10.1905 21.619 10.4357 21.619 10.7381V17.3095C21.619 17.612 21.3739 17.8572 21.0714 17.8572H15.0674L17.0159 15.7108C18.0102 14.6156 17.5765 12.8619 16.1863 12.3564L15.141 11.9763ZM8.59475 12.2987L10.6359 10.1905H4.73808C4.43564 10.1905 4.19046 10.4357 4.19046 10.7381V17.3095C4.19046 17.612 4.43564 17.8572 4.73808 17.8572H9.91363L10.3115 16.0439L9.3734 15.6999C7.95991 15.1816 7.54752 13.3803 8.59475 12.2987ZM3.64285 9.04765H11.7424L12.7106 8.04765H3.64285C2.76182 8.04765 2.04761 8.76187 2.04761 9.64289V14.0238V16.7619V18.4048C2.04761 19.2858 2.76182 20 3.64285 20H9.44348L9.66288 19H3.64285C3.3141 19 3.04761 18.7335 3.04761 18.4048V16.7619V14.0238V9.64289C3.04761 9.31415 3.31411 9.04765 3.64285 9.04765ZM16.6905 9.04765H16.2058L16.5693 8.04765H16.6905H19.9762H22.1667C23.0477 8.04765 23.7619 8.76186 23.7619 9.64289V11.0119C23.7619 11.139 23.8649 11.2421 23.9921 11.2421C25.0747 11.2421 25.9524 12.1198 25.9524 13.2024V14.8453C25.9524 15.9279 25.0747 16.8056 23.9921 16.8056C23.8649 16.8056 23.7619 16.9086 23.7619 17.0357V18.4048C23.7619 19.2858 23.0477 20 22.1667 20H13.1221L14.0299 19H22.1667C22.4954 19 22.7619 18.7335 22.7619 18.4048V17.0357C22.7619 16.3563 23.3127 15.8056 23.9921 15.8056C24.5224 15.8056 24.9524 15.3756 24.9524 14.8453V13.2024C24.9524 12.672 24.5224 12.2421 23.9921 12.2421C23.3127 12.2421 22.7619 11.6913 22.7619 11.0119V9.64289C22.7619 9.31415 22.4954 9.04765 22.1667 9.04765H19.9762H16.6905Z" fill="white"/>
</svg>
