<svg width="28" height="28" viewBox="0 0 28 28" fill="none" xmlns="http://www.w3.org/2000/svg">
<path fill-rule="evenodd" clip-rule="evenodd" d="M11.116 19.5005L11.1046 19.4904C10.9183 19.3248 10.7631 19.1438 10.636 18.9524H3.64286C3.34042 18.9524 3.09524 18.7072 3.09524 18.4048V9.64286C3.09524 9.34042 3.34042 9.09524 3.64286 9.09524H10.208C10.3978 8.73614 10.671 8.41316 11.0314 8.14888C11.1038 8.0958 11.1774 8.0462 11.2521 8H3.64286C2.73553 8 2 8.73553 2 9.64286V18.4048C2 19.3121 2.73553 20.0476 3.64286 20.0476H12.0312C11.7075 19.9259 11.403 19.7469 11.1275 19.5104L11.116 19.5005ZM15.1118 19.5C15.3038 19.3322 15.4636 19.1479 15.5941 18.9524H22.1667C22.4691 18.9524 22.7143 18.7072 22.7143 18.4048V17.0357C22.7143 16.33 23.2864 15.7579 23.9921 15.7579C24.4961 15.7579 24.9048 15.3493 24.9048 14.8452V13.2024C24.9048 12.6983 24.4961 12.2897 23.9921 12.2897C23.2864 12.2897 22.7143 11.7176 22.7143 11.0119V9.64286C22.7143 9.34042 22.4691 9.09524 22.1667 9.09524H16.04C15.841 8.73131 15.5576 8.40976 15.1941 8.15013C15.1202 8.09663 15.0451 8.04661 14.9688 8H22.1667C23.074 8 23.8095 8.73553 23.8095 9.64286V11.0119C23.8095 11.1127 23.8913 11.1944 23.9921 11.1944C25.101 11.1944 26 12.0934 26 13.2024V14.8452C26 15.9542 25.101 16.8532 23.9921 16.8532C23.8913 16.8532 23.8095 16.9349 23.8095 17.0357V18.4048C23.8095 19.3121 23.074 20.0476 22.1667 20.0476H14.2004C14.5267 19.9246 14.8337 19.7428 15.1108 19.5009L15.1118 19.5ZM4.7381 10.1905H9.89016C9.88216 10.2819 9.87817 10.3741 9.87817 10.4667C9.87817 10.944 9.98592 11.4918 10.1159 12.0139L10.1167 12.0169C10.2481 12.5409 10.4194 13.1577 10.6283 13.8632L10.629 13.8657C10.8085 14.4686 10.9345 14.9159 11.0126 15.2202C10.4005 15.8104 10.1617 16.5776 10.1617 17.3101C10.1617 17.4917 10.1764 17.6751 10.2076 17.8571H4.73809C4.43565 17.8571 4.19048 17.612 4.19048 17.3095V10.7381C4.19048 10.4356 4.43565 10.1905 4.7381 10.1905ZM21.0714 10.1905H16.3706C16.3794 10.2851 16.3839 10.3809 16.3839 10.4778C16.3839 10.9728 16.2682 11.5332 16.129 12.0634C15.9896 12.5941 15.8124 13.2069 15.5992 13.8986L15.5984 13.9012C15.4162 14.4891 15.2907 14.9236 15.2147 15.2195C15.8273 15.8063 16.0714 16.5722 16.0714 17.3101C16.0714 17.4921 16.0566 17.6754 16.0252 17.8571H21.0714C21.3739 17.8571 21.619 17.612 21.619 17.3095V10.7381C21.619 10.4356 21.3739 10.1905 21.0714 10.1905ZM11.936 17.3101C11.936 17.6738 12.0518 17.9585 12.2832 18.1642C12.5186 18.3662 12.7964 18.4672 13.1166 18.4672C13.4368 18.4672 13.7126 18.3662 13.9441 18.1642C14.1794 17.9585 14.2971 17.6738 14.2971 17.3101C14.2971 16.9465 14.1794 16.6636 13.9441 16.4616C13.7126 16.2559 13.4368 16.153 13.1166 16.153C12.7964 16.153 12.5186 16.2559 12.2832 16.4616C12.0518 16.6636 11.936 16.9465 11.936 17.3101ZM12.3295 13.3595C12.534 14.0464 12.6787 14.5625 12.7636 14.9078C12.7944 15.029 12.8407 15.1227 12.9025 15.1888C12.968 15.2512 13.0394 15.2825 13.1166 15.2825C13.1899 15.2825 13.2574 15.2512 13.3191 15.1888C13.3847 15.1227 13.4329 15.029 13.4638 14.9078C13.5487 14.5588 13.6953 14.0482 13.9036 13.376C14.1119 12.7001 14.2817 12.1124 14.4129 11.6128C14.544 11.1132 14.6096 10.7349 14.6096 10.4778C14.6096 10.0994 14.4591 9.8037 14.1582 9.59065C13.8612 9.37393 13.5101 9.26556 13.105 9.26556C12.7076 9.26556 12.3662 9.37025 12.0807 9.57963C11.7952 9.78901 11.6525 10.0847 11.6525 10.4667C11.6525 10.7165 11.7142 11.0894 11.8376 11.5853C11.9611 12.0775 12.1251 12.6689 12.3295 13.3595Z" fill="white"/>
</svg>
