<svg width="32" height="32" viewBox="0 0 32 32" fill="none" xmlns="http://www.w3.org/2000/svg">
<path fill-rule="evenodd" clip-rule="evenodd" d="M8.64645 9.35355C8.45118 9.15829 8.45118 8.84171 8.64645 8.64645C8.84171 8.45118 9.15829 8.45118 9.35355 8.64645L15.9522 15.2451L22.5509 8.64645C22.7461 8.45119 23.0627 8.45119 23.258 8.64645C23.4533 8.84171 23.4533 9.15829 23.258 9.35355L16.6593 15.9522L23.258 22.5509C23.4533 22.7461 23.4533 23.0627 23.258 23.258C23.0627 23.4533 22.7461 23.4533 22.5509 23.258L15.9522 16.6593L9.35355 23.258C9.15829 23.4533 8.84171 23.4533 8.64645 23.258C8.45118 23.0627 8.45118 22.7461 8.64645 22.5509L15.2451 15.9522L8.64645 9.35355Z" fill="white"/>
</svg>
