<svg width="32" height="32" viewBox="0 0 32 32" fill="none" xmlns="http://www.w3.org/2000/svg">
<path fill-rule="evenodd" clip-rule="evenodd" d="M11.5 11.5C11.5 9.01472 13.5147 7 16 7C18.4853 7 20.5 9.01472 20.5 11.5C20.5 13.9853 18.4853 16 16 16C13.5147 16 11.5 13.9853 11.5 11.5ZM19.1164 16.0325C20.5562 15.0407 21.5 13.3806 21.5 11.5C21.5 8.46243 19.0376 6 16 6C12.9624 6 10.5 8.46243 10.5 11.5C10.5 13.3806 11.4438 15.0407 12.8836 16.0325C9.02289 16.3892 6 19.6371 6 23.5909C6 24.9214 7.07859 26 8.40909 26H16H23.5909C24.9214 26 26 24.9214 26 23.5909C26 19.6371 22.9771 16.3892 19.1164 16.0325ZM16 17H13.5909C9.95085 17 7 19.9509 7 23.5909C7 24.3691 7.63087 25 8.40909 25H16H23.5909C24.3691 25 25 24.3691 25 23.5909C25 19.9509 22.0491 17 18.4091 17H16Z" fill="white"/>
</svg>
