<svg width="32" height="32" viewBox="0 0 32 32" fill="none" xmlns="http://www.w3.org/2000/svg">
<path fill-rule="evenodd" clip-rule="evenodd" d="M21.6698 9.19423C21.8772 9.37655 22.1932 9.35623 22.3755 9.14883C22.5578 8.94143 22.5375 8.6255 22.3301 8.44318C20.5997 6.92201 18.3396 6 15.8673 6C10.4111 6 5.99996 10.4838 5.99996 16C5.99996 21.5162 10.4111 26 15.8673 26C18.3396 26 20.5997 25.078 22.3301 23.5568C22.5375 23.3745 22.5578 23.0586 22.3755 22.8512C22.1932 22.6438 21.8772 22.6234 21.6698 22.8058C20.1138 24.1737 18.0858 25 15.8673 25C10.9766 25 6.99996 20.9772 6.99996 16C6.99996 11.0228 10.9766 7 15.8673 7C18.0858 7 20.1138 7.82629 21.6698 9.19423ZM22.9999 13L25.8535 15.6464C26.0487 15.8416 26.0487 16.1582 25.8535 16.3535L23.207 19C23.0118 19.1953 22.6952 19.1953 22.4999 19C22.3047 18.8047 22.3047 18.4882 22.4999 18.2929L24.2928 16.4999H15.4999C15.2238 16.4999 14.9999 16.2761 14.9999 15.9999C14.9999 15.7238 15.2238 15.4999 15.4999 15.4999H24.2928L22.2928 13.7071C22.0976 13.5118 22.0976 13.1952 22.2928 13C22.4881 12.8047 22.8047 12.8047 22.9999 13Z" fill="white"/>
</svg>
