<svg width="32" height="32" viewBox="0 0 32 32" fill="none" xmlns="http://www.w3.org/2000/svg">
<path fill-rule="evenodd" clip-rule="evenodd" d="M16.5 5.33331C16.5 5.05717 16.2762 4.83331 16 4.83331C15.7239 4.83331 15.5 5.05717 15.5 5.33331V10.6666C15.5 10.9428 15.7239 11.1666 16 11.1666C16.2762 11.1666 16.5 10.9428 16.5 10.6666V5.33331ZM12.3511 7.46136C12.6059 7.35491 12.7262 7.06206 12.6197 6.80726C12.5133 6.55246 12.2204 6.43219 11.9656 6.53864C8.28726 8.07533 5.70004 11.6786 5.70004 15.8844C5.70004 21.4902 10.2945 26.025 15.95 26.025C21.6056 26.025 26.2 21.4902 26.2 15.8844C26.2 11.6786 23.6128 8.07533 19.9344 6.53864C19.6796 6.43219 19.3868 6.55246 19.2804 6.80726C19.1739 7.06206 19.2942 7.35491 19.549 7.46136C22.8731 8.85007 25.2 12.1011 25.2 15.8844C25.2 20.9273 21.064 25.025 15.95 25.025C10.8361 25.025 6.70004 20.9273 6.70004 15.8844C6.70004 12.1011 9.02695 8.85007 12.3511 7.46136Z" fill="white"/>
</svg>
