<svg width="32" height="32" viewBox="0 0 32 32" fill="none" xmlns="http://www.w3.org/2000/svg">
<path d="M6.02713 9L7.48549 12.4671L10.5883 11.2786L10.998 11.1217" stroke="white" stroke-linecap="round" stroke-linejoin="round"/>
<path d="M6.8125 17.6423C7.17084 19.6474 8.17695 21.4866 9.68504 22.8725C11.3441 24.397 13.4986 25.2699 15.7509 25.3301H16.1901H16.6293H17" stroke="white" stroke-linecap="round" stroke-dasharray="2 2"/>
<path d="M7.55728 12.0212C8.51778 9.98312 10.1831 8.36124 12.2459 7.45498C14.3087 6.54872 16.6298 6.41926 18.7806 7.09049C20.9314 7.76171 22.7668 9.18832 23.948 11.107C25.1292 13.0256 25.5764 15.3068 25.2072 17.5295C24.838 19.7521 23.6772 21.7662 21.9391 23.1999C20.9555 24.0113 19.8245 24.6058 18.6198 24.9581" stroke="white" stroke-linecap="round"/>
</svg>
