<svg width="32" height="32" viewBox="0 0 32 32" fill="none" xmlns="http://www.w3.org/2000/svg">
<path d="M6.97296 13.6253C6.77301 14.3738 6.66666 15.1584 6.66666 15.9669C6.66666 21.1399 11.0197 25.3334 16.3895 25.3334C20.4033 25.3334 23.849 22.9904 25.3333 19.6467C24.1215 20.2864 22.7303 20.6501 21.2509 20.6501C19.7925 20.6501 18.086 20.0646 17.4151 19.7718C14.6435 18.4208 12.7434 15.6514 12.7434 12.4545C12.7434 10.1951 13.6925 8.14922 15.2276 6.66669C12.0616 7.02989 9.36249 8.85867 7.88201 11.4289C7.69184 11.759 7.52177 12.1014 7.37341 12.4545M6.97296 13.6253C7.08018 13.224 7.21432 12.8331 7.37341 12.4545M6.97296 13.6253L7.37341 12.4545" stroke="white" stroke-linecap="round" stroke-linejoin="round"/>
<path d="M24.8849 13.3334C25.1326 13.3334 25.3333 13.1326 25.3333 12.8849C25.3333 12.6372 25.1326 12.4364 24.8849 12.4364H21.2541L25.0991 7.56361V7.10409C25.0991 6.86252 24.9032 6.66669 24.6616 6.66669H20.5174C20.2697 6.66669 20.0689 6.86747 20.0689 7.11515C20.0689 7.36283 20.2697 7.56361 20.5174 7.56361H23.8312L20 12.4364V12.8696C20 13.1257 20.2076 13.3334 20.4638 13.3334H24.8849Z" fill="white"/>
</svg>
