<svg width="32" height="32" viewBox="0 0 32 32" fill="none" xmlns="http://www.w3.org/2000/svg">
<path fill-rule="evenodd" clip-rule="evenodd" d="M20.744 7.88184C20.6128 8.12479 20.3094 8.21532 20.0665 8.08405C16.9835 6.41826 13.108 6.64449 10.2564 8.95366C6.45563 12.0315 5.89681 17.6604 9.02907 21.5284C12.1613 25.3964 17.7834 26.0201 21.5842 22.9423C24.2206 20.8073 25.2974 17.4468 24.6638 14.2942C24.6094 14.0234 24.7847 13.7599 25.0555 13.7054C25.3262 13.651 25.5898 13.8264 25.6442 14.0971C26.3471 17.5948 25.1544 21.3379 22.2135 23.7194C17.9732 27.1531 11.7234 26.4446 8.25192 22.1577C4.78047 17.8708 5.38684 11.6102 9.6271 8.17652C12.8083 5.60043 17.1219 5.35644 20.5418 7.20426C20.7848 7.33553 20.8753 7.63889 20.744 7.88184ZM21.4999 8.58024C21.6718 8.36409 21.9863 8.32818 22.2025 8.50003C22.4523 8.69868 22.6915 8.90836 22.9196 9.12811C23.1184 9.31973 23.1243 9.63626 22.9326 9.83509C22.741 10.0339 22.4245 10.0398 22.2256 9.84817C22.0204 9.65035 21.805 9.4616 21.5801 9.28278C21.364 9.11093 21.3281 8.79639 21.4999 8.58024ZM23.4624 10.4529C23.6881 10.2939 24 10.348 24.1591 10.5738C24.2089 10.6445 24.2572 10.7125 24.3042 10.7784L24.3043 10.7786L24.3043 10.7786C24.6028 11.1981 24.8458 11.5395 25.071 12.0402C25.1843 12.292 25.072 12.588 24.8202 12.7013C24.5684 12.8146 24.2724 12.7023 24.1591 12.4505C23.9657 12.0207 23.7599 11.734 23.5085 11.3838C23.455 11.3093 23.3995 11.2319 23.3415 11.1496C23.1825 10.9239 23.2366 10.6119 23.4624 10.4529ZM16.5 12C16.5 11.7239 16.2761 11.5 16 11.5C15.7239 11.5 15.5 11.7239 15.5 12V16V16.23L15.6746 16.3796L19.1746 19.3796C19.3843 19.5593 19.6999 19.5351 19.8796 19.3254C20.0593 19.1157 20.0351 18.8001 19.8254 18.6204L16.5 15.77V12Z" fill="white"/>
</svg>
